Coordinates
version=1
nRows=26
nColumns=22
inDegrees=yes

Units are S.I. units (second, meters, Newtons, ...)
If the header above contains a line with 'inDegrees', this indicates whether rotational values are in degrees (yes) or radians (no).

endheader
time	pelvis_tilt	pelvis_list	pelvis_rotation	pelvis_tx	pelvis_ty	pelvis_tz	hip_flexion_r	hip_adduction_r	hip_rotation_r	knee_angle_r	ankle_angle_r	subtalar_angle_r	hip_flexion_l	hip_adduction_l	hip_rotation_l	knee_angle_l	ankle_angle_l	subtalar_angle_l	lumbar_extension	lumbar_bending	lumbar_rotation
      1.03000000	      4.59571394	      0.21494565	     42.84383804	      0.13694158	      0.92246879	      0.46538429	     -6.04512081	      0.30293482	     -8.26123514	    -18.11614429	     10.79645897	      6.26884617	     21.93439034	     -5.50173864	    -21.45990162	    -40.45297011	      5.24699481	     -5.28071928	    -10.08099757	     -1.79849191	     11.18872426
      1.04000000	      4.53679874	      0.28439242	     42.84692555	      0.14358968	      0.92150163	      0.45924950	     -6.73049886	      0.22178131	     -8.31135472	    -18.01424816	     11.04882397	      6.32883142	     21.73361456	     -5.46340303	    -23.40512209	    -36.95874787	      5.34778841	     -5.22237329	    -10.01176192	     -1.88560657	     11.70084088
      1.05000000	      4.46503740	      0.31277588	     42.83312418	      0.15011734	      0.92034453	      0.45294421	     -7.34703626	      0.13830990	     -8.35335306	    -17.96980040	     11.30199992	      6.40590677	     21.55294060	     -5.37474580	    -25.38763747	    -33.46415336	      5.42640387	     -5.04494427	     -9.89490093	     -1.93732118	     12.20410660
      1.06000000	      4.41460802	      0.31875096	     42.83229689	      0.15651268	      0.91906159	      0.44643873	     -7.95553274	      0.06692403	     -8.44321231	    -17.94792807	     11.51211197	      6.51714379	     21.37541215	     -5.22608064	    -27.29846847	    -30.00819160	      5.51915922	     -4.70937096	     -9.77538307	     -1.94429864	     12.67644223
      1.07000000	      4.33298083	      0.24269258	     42.82852213	      0.16276754	      0.91752647	      0.43980021	     -8.45080973	      0.01715319	     -8.50165809	    -17.98166554	     11.75607042	      6.64265173	     21.32687792	     -5.05693033	    -29.12608028	    -26.68895688	      5.60756794	     -4.25645509	     -9.56817036	     -1.89559380	     13.09673253
      1.08000000	      4.25891012	      0.10985544	     42.83309336	      0.16888094	      0.91582849	      0.43302150	     -8.88625312	     -0.00415820	     -8.56723960	    -18.06264482	     11.97585630	      6.79558311	     21.36400746	     -4.87153399	    -30.74429092	    -23.53244384	      5.72356501	     -3.67751347	     -9.32972415	     -1.78620635	     13.49894550
      1.09000000	      4.17313728	     -0.10476754	     42.83358576	      0.17489562	      0.91393385	      0.42615396	     -9.21093213	      0.00655505	     -8.63694858	    -18.22321737	     12.17562985	      6.94843328	     21.53860132	     -4.72036239	    -32.16775668	    -20.62572209	      5.84966380	     -3.10776589	     -9.02429951	     -1.61925596	     13.89656374
      1.10000000	      4.15371902	     -0.32617295	     42.85959862	      0.18086732	      0.91203391	      0.41914124	     -9.59750671	      0.06746931	     -8.66250428	    -18.36640440	     12.30415450	      7.19805315	     21.71009624	     -4.59888310	    -33.28062273	    -17.96543690	      6.02872477	     -2.28667716	     -8.77334326	     -1.39840600	     14.21697707
      1.11000000	      4.10545682	     -0.61276459	     42.84961121	      0.18685915	      0.90999737	      0.41208431	     -9.87482502	      0.13782702	     -8.62352507	    -18.58310078	     12.41598242	      7.40272811	     22.01313305	     -4.56113691	    -34.25424137	    -15.67272356	      6.18858842	     -1.72395998	     -8.44696801	     -1.16431471	     14.57021839
      1.12000000	      4.12106200	     -0.89778608	     42.83750185	      0.19289783	      0.90800888	      0.40491761	    -10.20451161	      0.24590196	     -8.51540568	    -18.80766126	     12.45118898	      7.69608642	     22.31213913	     -4.62486533	    -35.02266865	    -13.77411799	      6.37958051	     -1.08441156	     -8.17648777	     -0.89862079	     14.90619865
      1.13000000	      4.18455668	     -1.17464053	     42.82590293	      0.19899967	      0.90607728	      0.39762659	    -10.56841133	      0.37264457	     -8.35903879	    -19.06410370	     12.41628480	      8.06623382	     22.62084288	     -4.80083979	    -35.64662992	    -12.34157803	      6.60212349	     -0.51393948	     -7.95145993	     -0.61852890	     15.21682653
      1.14000000	      4.26564942	     -1.42036818	     42.76995447	      0.20523898	      0.90425277	      0.39025588	    -10.96553530	      0.47859712	     -8.08198989	    -19.33065302	     12.30158869	      8.37670818	     22.93182131	     -5.08408573	    -36.25167744	    -11.40789590	      6.81895164	     -0.22881570	     -7.76312801	     -0.38303281	     15.56745768
      1.15000000	      4.37685210	     -1.60759173	     42.70398903	      0.21160517	      0.90256500	      0.38270144	    -11.41890927	      0.54877055	     -7.74349588	    -19.63993955	     12.11405412	      8.74286872	     23.20955919	     -5.45255727	    -36.81093617	    -10.99037212	      7.06974745	     -0.05170543	     -7.63238128	     -0.19328263	     15.90387093
      1.16000000	      4.50856704	     -1.73441783	     42.61446124	      0.21813114	      0.90104216	      0.37495597	    -11.93019168	      0.57340007	     -7.34269726	    -19.97145673	     11.85507463	      9.18872480	     23.44349377	     -5.90182220	    -37.35673014	    -11.07176789	      7.31382320	     -0.02559490	     -7.54743504	     -0.06489053	     16.27394317
      1.17000000	      4.64904752	     -1.78842520	     42.52072973	      0.22475193	      0.89967963	      0.36698662	    -12.47842321	      0.53174237	     -6.89451636	    -20.36775467	     11.49432445	      9.86754474	     23.63207981	     -6.39555086	    -37.85986311	    -11.62608767	      7.50488235	     -0.25873388	     -7.51324783	     -0.00803948	     16.65287030
      1.18000000	      4.79315841	     -1.74643928	     42.38288416	      0.23159436	      0.89852147	      0.35875279	    -13.10071256	      0.40380606	     -6.35587779	    -20.78004532	     11.05447019	     10.24938354	     23.71664731	     -6.91100852	    -38.40209452	    -12.57239846	      7.72899830	     -0.65548076	     -7.52244064	     -0.05418236	     17.03662998
      1.19000000	      4.92301769	     -1.62276903	     42.27928975	      0.23845412	      0.89752614	      0.35017665	    -13.73664436	      0.18606678	     -5.83747216	    -21.28127923	     10.52253575	     10.94953334	     23.72883716	     -7.37704661	    -38.85720869	    -13.81372616	      7.81433539	     -1.55969599	     -7.56222273	     -0.18133208	     17.38774068
      1.20000000	      5.02958158	     -1.41975465	     42.16282693	      0.24543879	      0.89669865	      0.34125995	    -14.38585440	     -0.12663175	     -5.28031500	    -21.84220909	      9.88232186	     11.50529113	     23.64335902	     -7.78916646	    -39.29667430	    -15.26331099	      7.85723864	     -2.60725627	     -7.60584793	     -0.40079447	     17.72325508
      1.21000000	      5.09639449	     -1.14935680	     42.06696083	      0.25246145	      0.89602269	      0.33196236	    -15.00772336	     -0.53243903	     -4.71738874	    -22.49453003	      9.09523810	     12.07005688	     23.47982927	     -8.10238986	    -39.68903976	    -16.82820393	      7.81004796	     -3.90330837	     -7.63342924	     -0.70342140	     18.00671094
      1.22000000	      5.13574726	     -0.83363324	     41.99468026	      0.25948091	      0.89550259	      0.32232353	    -15.57585242	     -1.00483719	     -4.16428497	    -23.25824250	      8.16479325	     12.63843088	     23.24734249	     -8.32339297	    -40.01387653	    -18.43816014	      7.66348377	     -5.38782401	     -7.64617042	     -1.05892934	     18.27532015
      1.23000000	      5.12898157	     -0.48686825	     41.96888541	      0.26643305	      0.89513050	      0.31233731	    -16.04269809	     -1.53498920	     -3.61683244	    -24.16356480	      7.02135705	     13.23315126	     22.97243157	     -8.42067938	    -40.25496200	    -20.02232792	      7.42728553	     -7.03443458	     -7.62118904	     -1.46024056	     18.46216851
      1.24000000	      5.08081377	     -0.13400939	     42.00681687	      0.27327032	      0.89490113	      0.30203393	    -16.38068223	     -2.09107399	     -3.08282626	    -25.22069756	      5.64474855	     13.85435970	     22.68112326	     -8.40114932	    -40.37832003	    -21.53897841	      7.11793539	     -8.75819104	     -7.55063869	     -1.88024685	     18.57283900
      1.25000000	      4.99130708	      0.20678908	     42.14048094	      0.27991551	      0.89479683	      0.29143682	    -16.55657649	     -2.64430487	     -2.57360409	    -26.45669513	      4.02476537	     14.53112632	     22.40373061	     -8.26600702	    -40.36347090	    -22.97032764	      6.78773672	    -10.52355424	     -7.43445310	     -2.29543239	     18.56316579
      1.26000000	      4.89125484	      0.51306685	     42.35103578	      0.28635593	      0.89484540	      0.28065243	    -16.55052631	     -3.15157680	     -2.05354655	    -27.89516733	      2.14088485	     15.22520439	     22.13910191	     -8.06283435	    -40.18374465	    -24.30692559	      6.45303391	    -12.19023946	     -7.29072517	     -2.66642051	     18.47572912
      1.27000000	      4.78545211	      0.77262794	     42.65855917	      0.29254507	      0.89503092	      0.26973275	    -16.34275965	     -3.58406784	     -1.51762836	    -29.55159441	     -0.00213808	     15.93596380	     21.90125320	     -7.80139900	    -39.83128883	    -25.54403752	      6.15013963	    -13.70845490	     -7.12559541	     -2.98048232	     18.29294672
      1.28000000	      4.68198749	      0.97938439	     43.05470260	      0.29846322	      0.89534056	      0.25874564	    -15.91751937	     -3.92816113	     -0.95761478	    -31.44075543	     -2.38344675	     16.64652958	     21.68850596	     -7.49995630	    -39.31724537	    -26.68210031	      5.93063176	    -15.02619644	     -6.94836455	     -3.22549094	     18.02249948
